[img]http://img145.imageshack.us/img145/1367/postergeu.jpg[/img]
[code]
 No Strings Attached 2011 TS XViD - IMAGINE
********************************************************************************************************************

Ripper ...........:IMAGiNE                                         IMDB Rating.......:6.1/10                             
Video Codec.......:XVID                                            Release Date......:18/02/11
Audio Codec.......:MP3                                             Theatre Date......:21/01/11
Audio Bitrate.....:128                                             Runtime...........:1h 38mn
Subtitles.........:NIL                                             Language..........:ENGLISH
Resolution........:688 x 384                                       IMDb URL..........:http://www.imdb.com/title/tt1411238/
DETAILS:

Video
ID                               : 0
Format                           : MPEG-4 Visual
Format profile                   : Advanced Simple@L5
Format settings, BVOP            : Yes
Format settings, QPel            : No
Format settings, GMC             : No warppoints
Format settings, Matrix          : Default (MPEG)
Muxing mode                      : Packed bitstream
Codec ID                         : XVID
Codec ID/Hint                    : XviD
Duration                         : 1h 38mn
Bit rate                         : 1 864 Kbps
Width                            : 688 pixels
Height                           : 384 pixels
Display aspect ratio             : 16:9
Frame rate                       : 25.000 fps
Color space                      : YUV
Chroma subsampling               : 4:2:0
Bit depth                        : 8 bits
Scan type                        : Progressive
Bits/(Pixel*Frame)               : 0.282
Stream size                      : 1.28 GiB (93%)
Writing library                  : XviD 61

Audio
ID                               : 1
Format                           : MPEG Audio
Format version                   : Version 1
Format profile                   : Layer 3
Codec ID                         : 55
Codec ID/Hint                    : MP3
Duration                         : 1h 38mn
Bit rate mode                    : Constant
Bit rate                         : 128 Kbps
Channel(s)                       : 2 channels
Sampling rate                    : 44.1 KHz
Stream size                      : 90.4 MiB (6%)
Alignment                        : Split accross interleaves
Interleave, duration             : 40 ms (1.00 video frame)
Interleave, preload duration     : 500 ms










SOURCES:

VIDEO: Jailbait... Thanks 
AUDIO: Thanks matey... Thanks

NOTES:

IMAGiNE bringing you another release.......... No Strings Attached 2010

Here we are with our encode for you all.video is nice and thanks again Jailbait .We made
a small script to brighten it up and alter the contrast....also changed the rgb colours 
and added some sharpeness.With the audio it was a pain to sync but we got there now it was just 
a case of muxing the audio back to our encode...

Enjoy 
[/code]
Screens:
[img]http://img80.imageshack.us/img80/1515/42617995.jpg[/img]
[img]http://img41.imageshack.us/img41/5208/61194720.jpg[/img]
[img]http://img16.imageshack.us/img16/7027/80164256.jpg[/img]
